HIERARCHY
ROOT Hips
{
	OFFSET 0.000000 35.082581 0.000000
	CHANNELS 6 Xposition Yposition Zposition Xrotation Yrotation Zrotation 
	JOINT Spine
	{
		OFFSET 0.000000 6.876099 0.125700
		CHANNELS 3 Xrotation Yrotation Zrotation
		JOINT Spine1
		{
			OFFSET 0.000000 5.730043 0.104720
			CHANNELS 3 Xrotation Yrotation Zrotation
			JOINT Spine1_split
			{
				OFFSET 0.000000 5.730043 0.104720
				CHANNELS 3 Xrotation Yrotation Zrotation
				JOINT Spine2
				{
					OFFSET 0.000000 5.730043 0.104720
					CHANNELS 3 Xrotation Yrotation Zrotation
					JOINT Neck
					{
						OFFSET 0.000000 10.314075 0.188496
						CHANNELS 3 Xrotation Yrotation Zrotation
						JOINT Head
						{
							OFFSET 0.000000 7.643700 -2.377400
							CHANNELS 3 Xrotation Yrotation Zrotation
							JOINT HeadTop_End
							{
								OFFSET 0.000000 43.788605 -13.619600
								CHANNELS 3 Xrotation Yrotation Zrotation
								End Site
								{
									OFFSET 0.000000 0.000000 0.000000
								}
							}
						}
					}
					JOINT LeftShoulder
					{
						OFFSET 2.196100 4.412489 0.087492
						CHANNELS 3 Xrotation Yrotation Zrotation
						JOINT LeftShoulder_split
						{
							OFFSET 2.196100 4.412489 0.087492
							CHANNELS 3 Xrotation Yrotation Zrotation
							JOINT LeftArm
							{
								OFFSET 8.771219 -2.981674 -0.026999
								CHANNELS 3 Xrotation Yrotation Zrotation
								JOINT LeftForeArm
								{
									OFFSET 8.512804 0.000000 -0.000000
									CHANNELS 3 Xrotation Yrotation Zrotation
									JOINT LeftHand
									{
										OFFSET 18.484802 0.000000 -0.000000
										CHANNELS 3 Xrotation Yrotation Zrotation
										JOINT LeftHandThumb1
										{
											OFFSET 2.499420 -1.158070 2.653252
											CHANNELS 3 Xrotation Yrotation Zrotation
											JOINT LeftHandThumb2
											{
												OFFSET 2.370079 -1.368366 1.368366
												CHANNELS 3 Xrotation Yrotation Zrotation
												JOINT LeftHandThumb3
												{
													OFFSET 2.676727 -1.545410 1.545409
													CHANNELS 3 Xrotation Yrotation Zrotation
													JOINT LeftHandThumb4
													{
														OFFSET 1.692226 -0.977005 0.977007
														CHANNELS 3 Xrotation Yrotation Zrotation
														End Site
														{
															OFFSET 0.000000 0.000000 0.000000
														}
													}
												}
											}
										}
										JOINT LeftHandIndex1
										{
											OFFSET 7.924831 -0.457527 2.345128
											CHANNELS 3 Xrotation Yrotation Zrotation
											JOINT LeftHandIndex2
											{
												OFFSET 3.643303 0.000000 0.000000
												CHANNELS 3 Xrotation Yrotation Zrotation
												JOINT LeftHandIndex3
												{
													OFFSET 3.810799 0.000000 0.000000
													CHANNELS 3 Xrotation Yrotation Zrotation
													JOINT LeftHandIndex4
													{
														OFFSET 2.403702 0.000000 0.000000
														CHANNELS 3 Xrotation Yrotation Zrotation
														End Site
														{
															OFFSET 0.000000 0.000000 0.000000
														}
													}
												}
											}
										}
										JOINT LeftHandMiddle1
										{
											OFFSET 8.563995 0.000000 -0.000000
											CHANNELS 3 Xrotation Yrotation Zrotation
											JOINT LeftHandMiddle2
											{
												OFFSET 3.861618 0.000000 0.000000
												CHANNELS 3 Xrotation Yrotation Zrotation
												JOINT LeftHandMiddle3
												{
													OFFSET 3.701603 0.000000 0.000000
													CHANNELS 3 Xrotation Yrotation Zrotation
													JOINT LeftHandMiddle4
													{
														OFFSET 2.322544 0.000000 0.000000
														CHANNELS 3 Xrotation Yrotation Zrotation
														End Site
														{
															OFFSET 0.000000 0.000000 0.000000
														}
													}
												}
											}
										}
										JOINT LeftHandRing1
										{
											OFFSET 8.426460 -0.424637 -3.286992
											CHANNELS 3 Xrotation Yrotation Zrotation
											JOINT LeftHandRing2
											{
												OFFSET 3.126408 0.000000 0.000000
												CHANNELS 3 Xrotation Yrotation Zrotation
												JOINT LeftHandRing3
												{
													OFFSET 3.085026 0.000000 0.000000
													CHANNELS 3 Xrotation Yrotation Zrotation
													JOINT LeftHandRing4
													{
														OFFSET 1.644005 0.000000 0.000000
														CHANNELS 3 Xrotation Yrotation Zrotation
														End Site
														{
															OFFSET 0.000000 0.000000 0.000000
														}
													}
												}
											}
										}
									}
								}
							}
						}
					}
					JOINT RightShoulder
					{
						OFFSET -2.196100 4.412496 0.070690
						CHANNELS 3 Xrotation Yrotation Zrotation
						JOINT RightShoulder_split
						{
							OFFSET -2.196100 4.412496 0.070690
							CHANNELS 3 Xrotation Yrotation Zrotation
							JOINT RightArm
							{
								OFFSET -8.771282 -2.981682 -0.094208
								CHANNELS 3 Xrotation Yrotation Zrotation
								JOINT RightForeArm
								{
									OFFSET -8.494598 0.000000 0.000000
									CHANNELS 3 Xrotation Yrotation Zrotation
									JOINT RightHand
									{
										OFFSET -18.483803 0.000000 0.000001
										CHANNELS 3 Xrotation Yrotation Zrotation
										JOINT RightHandThumb1
										{
											OFFSET -2.527351 -1.008072 2.575253
											CHANNELS 3 Xrotation Yrotation Zrotation
											JOINT RightHandThumb2
											{
												OFFSET -2.321518 -1.340328 1.340329
												CHANNELS 3 Xrotation Yrotation Zrotation
												JOINT RightHandThumb3
												{
													OFFSET -2.657753 -1.534454 1.534455
													CHANNELS 3 Xrotation Yrotation Zrotation
													JOINT RightHandThumb4
													{
														OFFSET -1.807510 -1.043568 1.043567
														CHANNELS 3 Xrotation Yrotation Zrotation
														End Site
														{
															OFFSET 0.000000 0.000000 0.000000
														}
													}
												}
											}
										}
										JOINT RightHandIndex1
										{
											OFFSET -8.811420 0.015533 2.887987
											CHANNELS 3 Xrotation Yrotation Zrotation
											JOINT RightHandIndex2
											{
												OFFSET -3.537502 0.000000 0.000000
												CHANNELS 3 Xrotation Yrotation Zrotation
												JOINT RightHandIndex3
												{
													OFFSET -3.356201 0.000000 0.000000
													CHANNELS 3 Xrotation Yrotation Zrotation
													JOINT RightHandIndex4
													{
														OFFSET -1.933098 0.000000 0.000000
														CHANNELS 3 Xrotation Yrotation Zrotation
														End Site
														{
															OFFSET 0.000000 0.000000 0.000000
														}
													}
												}
											}
										}
										JOINT RightHandMiddle1
										{
											OFFSET -8.178135 0.000000 0.000000
											CHANNELS 3 Xrotation Yrotation Zrotation
											JOINT RightHandMiddle2
											{
												OFFSET -3.901302 0.000000 0.000000
												CHANNELS 3 Xrotation Yrotation Zrotation
												JOINT RightHandMiddle3
												{
													OFFSET -3.909599 0.000000 0.000000
													CHANNELS 3 Xrotation Yrotation Zrotation
													JOINT RightHandMiddle4
													{
														OFFSET -2.376003 0.000000 0.000000
														CHANNELS 3 Xrotation Yrotation Zrotation
														End Site
														{
															OFFSET 0.000000 0.000000 0.000000
														}
													}
												}
											}
										}
										JOINT RightHandRing1
										{
											OFFSET -7.559013 0.014137 -2.865403
											CHANNELS 3 Xrotation Yrotation Zrotation
											JOINT RightHandRing2
											{
												OFFSET -3.449306 0.000000 0.000000
												CHANNELS 3 Xrotation Yrotation Zrotation
												JOINT RightHandRing3
												{
													OFFSET -3.362106 0.000000 0.000000
													CHANNELS 3 Xrotation Yrotation Zrotation
													JOINT RightHandRing4
													{
														OFFSET -2.076401 0.000000 0.000000
														CHANNELS 3 Xrotation Yrotation Zrotation
														End Site
														{
															OFFSET 0.000000 0.000000 0.000000
														}
													}
												}
											}
										}
									}
								}
							}
						}
					}
				}
			}
		}
	}
	JOINT LeftUpLeg
	{
		OFFSET 10.205400 -3.823500 0.155100
		CHANNELS 3 Xrotation Yrotation Zrotation
		JOINT LeftLeg
		{
			OFFSET 0.708757 -12.982077 0.567790
			CHANNELS 3 Xrotation Yrotation Zrotation
			JOINT LeftFoot
			{
				OFFSET -0.708756 -10.717838 -2.184338
				CHANNELS 3 Xrotation Yrotation Zrotation
				JOINT LeftToeBase
				{
					OFFSET 0.108149 -7.191104 7.560241
					CHANNELS 3 Xrotation Yrotation Zrotation
					JOINT LeftToe_End
					{
						OFFSET 0.070230 0.081724 4.490308
						CHANNELS 3 Xrotation Yrotation Zrotation
						End Site
						{
							OFFSET 0.000000 0.000000 0.000000
						}
					}
				}
			}
		}
	}
	JOINT RightUpLeg
	{
		OFFSET -10.205400 -3.823500 0.005500
		CHANNELS 3 Xrotation Yrotation Zrotation
		JOINT RightLeg
		{
			OFFSET -0.708756 -12.982134 0.610632
			CHANNELS 3 Xrotation Yrotation Zrotation
			JOINT RightFoot
			{
				OFFSET 0.708754 -10.717769 -1.945823
				CHANNELS 3 Xrotation Yrotation Zrotation
				JOINT RightToeBase
				{
					OFFSET -0.108140 -7.191069 7.372968
					CHANNELS 3 Xrotation Yrotation Zrotation
					JOINT RightToe_End
					{
						OFFSET -0.070227 0.081735 4.479403
						CHANNELS 3 Xrotation Yrotation Zrotation
						End Site
						{
							OFFSET 0.000000 0.000000 0.000000
						}
					}
				}
			}
		}
	}
}
MOTION
Frames: 4
Frame Time: 0.016667
0.969969 49.920547 7.355445 4.552467 -38.676202 4.637498 30.127493 -3.765066 -10.202149 12.785639 1.087590 -3.033129 0.000000 0.000000 0.000000 12.733203 1.050412 -3.241310 -8.164141 20.999277 -13.038087 -23.845976 13.475285 4.639317 -0.000000 -0.000000 -0.000001 9.829647 -9.813830 -1.458533 0.000000 0.000000 0.000000 -62.537731 12.081200 3.106153 46.615587 -25.819869 31.530107 -9.264691 7.312761 9.666260 40.109958 -15.297102 -0.360403 5.639806 28.097605 11.338681 1.088593 40.896738 22.734047 -0.000000 0.000003 -0.000002 6.882246 2.840066 -61.140418 8.247912 7.640003 -89.897939 2.146346 8.173649 -41.827795 0.000004 -0.000000 0.000000 -2.345520 4.688842 -62.655333 8.754124 9.897117 -87.051116 1.995389 4.929262 -37.483317 0.000000 -0.000001 -0.000000 -9.042546 10.045654 -60.766328 8.524072 9.508825 -66.893104 6.576505 9.896704 -70.384990 -0.000001 0.000001 0.000001 14.990529 20.897812 -4.160220 0.000000 0.000000 0.000000 -28.001557 -11.258127 -3.541410 -45.194549 43.244007 34.197698 -6.582773 -10.157718 -10.545296 -1.525708 -5.490527 13.054257 1.517221 -22.702504 -8.022605 -6.615022 18.786685 8.531375 -0.000000 0.000000 -0.000000 1.268144 4.823967 -8.200803 0.525029 1.162842 0.172154 0.908689 -0.829982 -14.364533 -0.000000 -0.000001 -0.000000 0.868472 -5.217175 -11.333478 1.479994 -3.605096 20.026714 1.511960 3.331285 -13.916440 -0.000001 0.000000 0.000001 1.814741 -11.814420 -9.180211 1.792571 -3.024097 21.110259 1.689913 -2.799903 9.683679 0.000000 0.000001 0.000002 -77.303972 -19.300265 32.587864 82.133967 0.300932 8.733737 -9.920528 1.980017 -2.640320 -0.000267 -0.007722 0.000035 0.000001 0.000001 0.000000 -128.544980 -46.781345 -3.627979 120.962869 12.333820 -14.700830 22.504379 2.351305 28.134785 -0.000189 0.000205 -0.000323 0.000000 0.000000 0.000004 
0.952517 49.966530 7.334133 4.484194 -38.416358 4.545650 30.127227 -3.822225 -10.207515 12.788146 1.087590 -3.033136 0.000000 0.000000 0.000000 12.735772 1.050414 -3.241317 -8.920861 20.968734 -13.048926 -25.340133 14.061503 5.597397 -0.000002 -0.000000 -0.000000 9.984068 -9.728898 -0.757593 0.000000 0.000000 0.000000 -62.955800 11.135322 3.775609 46.589256 -25.768451 31.469595 -9.041970 6.729832 9.359710 40.109951 -15.297098 -0.360402 5.639804 28.097614 11.338686 1.088601 40.896734 22.734046 -0.000001 0.000003 -0.000002 6.882238 2.840067 -61.140411 8.247914 7.640005 -89.897939 2.146338 8.173649 -41.827798 0.000001 -0.000000 0.000001 -2.345520 4.688842 -62.655327 8.754122 9.897120 -87.051116 1.995393 4.929262 -37.483317 -0.000001 -0.000000 0.000001 -9.042547 10.045654 -60.766328 8.524072 9.508824 -66.893104 6.576509 9.896709 -70.384990 0.000001 0.000001 0.000001 15.302936 20.568541 -4.925041 0.000000 0.000000 0.000000 -28.808310 -11.687213 -3.682301 -45.727874 43.802218 34.969220 -6.236501 -12.921149 -11.831683 -1.525702 -5.490522 13.054255 1.517218 -22.702500 -8.022602 -6.615023 18.786679 8.531374 0.000002 0.000002 0.000001 1.268136 4.826747 -8.222279 0.524598 1.165248 0.150711 1.163877 -1.360000 -14.478802 0.000001 0.000001 -0.000000 0.868219 -5.213094 -11.361326 1.477419 -3.598036 19.974678 1.512730 3.334675 -13.944358 0.000001 -0.000000 -0.000002 1.809771 -11.815192 -9.204585 1.789880 -3.018419 21.069322 1.687943 -2.797114 9.659872 -0.000001 0.000000 -0.000004 -77.366905 -18.950076 32.279003 82.497484 2.204551 9.627382 -10.352434 1.248247 -1.888323 0.170560 -0.007765 0.000003 0.000003 0.000002 -0.000004 -128.329091 -46.777534 -3.324078 120.879704 12.273286 -14.733597 23.327587 2.408548 28.592333 -0.000189 0.000136 -0.000383 0.000000 0.000000 0.000001 
0.978666 49.969704 7.331873 4.422484 -38.206924 4.421309 30.127401 -3.822789 -10.201628 12.798057 1.087546 -3.033112 0.000000 0.000000 0.000000 12.745772 1.050453 -3.241332 -8.938872 20.977113 -13.011259 -25.364814 13.878972 5.705350 0.000001 -0.000000 0.000000 10.133428 -9.721074 -0.029008 0.000000 0.000000 0.000000 -63.361384 10.080277 4.356414 46.550031 -25.690309 31.376742 -8.810560 6.229391 9.041415 40.109955 -15.297102 -0.360406 5.639797 28.097614 11.338687 1.088605 40.896738 22.734054 -0.000002 0.000003 0.000002 6.882241 2.840067 -61.140418 8.247913 7.639996 -89.897939 2.146346 8.173649 -41.827798 0.000002 -0.000000 0.000000 -2.345515 4.688847 -62.655340 8.754119 9.897121 -87.051116 1.995394 4.929260 -37.483320 -0.000001 0.000001 0.000001 -9.042551 10.045660 -60.766335 8.524067 9.508828 -66.893111 6.576505 9.896712 -70.384990 0.000001 0.000001 0.000001 15.618597 20.231666 -5.707912 0.000000 0.000000 0.000000 -29.640128 -12.140666 -3.854849 -46.313771 44.391797 35.807813 -5.972650 -16.119260 -13.160346 -1.525705 -5.490522 13.054262 1.517217 -22.702499 -8.022601 -6.615026 18.786685 8.531377 0.000000 -0.000002 -0.000000 1.268118 4.834606 -8.283326 0.527606 1.173649 0.089705 1.477273 -1.848835 -14.683413 0.000001 0.000001 0.000000 0.867566 -5.201538 -11.440764 1.470008 -3.577913 19.826709 1.514789 3.345450 -14.023892 0.000001 0.000000 0.000001 1.800679 -11.816952 -9.274043 1.782249 -3.002209 20.952824 1.688072 -2.787256 9.592462 0.000001 0.000002 -0.000000 -77.427059 -19.010691 32.242106 82.502825 2.162765 9.585447 -10.190493 1.129298 -1.675097 0.215757 -0.007785 -0.000011 -0.000001 0.000001 0.000000 -128.586111 -46.722455 -3.378054 121.072603 12.177496 -14.707989 23.475430 2.429274 28.750728 -0.000196 0.000184 -0.000343 -0.000000 -0.000000 -0.000001 
1.006865 49.973255 7.328905 4.361883 -37.999740 4.296077 30.132759 -3.821390 -10.189184 12.814265 1.087514 -3.033106 0.000000 0.000000 0.000000 12.762084 1.050439 -3.241330 -8.900570 20.965578 -12.984465 -25.327578 13.653085 5.711546 -0.000000 0.000000 0.000000 10.281083 -9.782293 0.722406 0.000000 0.000000 0.000000 -63.758614 8.941652 4.845718 46.500283 -25.586447 31.254345 -8.574785 5.831137 8.725820 40.109951 -15.297097 -0.360402 5.639800 28.097614 11.338684 1.088599 40.896728 22.734052 0.000001 0.000001 0.000002 6.882243 2.840065 -61.140418 8.247914 7.640006 -89.897939 2.146344 8.173652 -41.827795 0.000004 -0.000000 -0.000001 -2.345520 4.688846 -62.655333 8.754125 9.897122 -87.051123 1.995388 4.929263 -37.483320 0.000004 0.000001 -0.000001 -9.042544 10.045655 -60.766328 8.524074 9.508831 -66.893097 6.576507 9.896707 -70.384983 -0.000000 -0.000002 -0.000003 15.932618 19.880790 -6.500292 0.000000 0.000000 0.000000 -30.491050 -12.602415 -4.047637 -46.939655 44.997119 36.694898 -5.836489 -19.436200 -14.502631 -1.525705 -5.490521 13.054252 1.517223 -22.702502 -8.022597 -6.615022 18.786683 8.531377 0.000001 0.000000 0.000003 1.272690 4.847379 -8.379327 0.532361 1.186889 0.002687 1.837487 -2.300210 -14.965228 0.000000 0.000001 0.000000 0.866601 -5.183214 -11.565169 1.458483 -3.546348 19.594628 1.518096 3.362327 -14.148618 -0.000001 -0.000000 -0.000000 1.786149 -11.819733 -9.382930 1.770353 -2.976809 20.770161 1.684071 -2.772010 9.486524 0.000000 0.000000 -0.000001 -77.518071 -19.103679 32.211394 82.501138 2.033939 9.502286 -9.897758 1.065950 -1.477137 0.181336 -0.007787 0.000011 0.000003 -0.000000 0.000002 -128.859729 -46.659512 -3.446259 121.264353 12.060438 -14.678468 23.634203 2.451082 28.918454 -0.000181 0.000193 -0.000365 0.000000 -0.000000 -0.000001 
